<svg width="22" height="22" viewBox="0 0 22 22" fill="none" xmlns="http://www.w3.org/2000/svg">
<g clip-path="url(#clip0_213_824)">
<path d="M20.1326 2.51109C20.0733 2.45985 20.0011 2.42579 19.9238 2.41261C19.8466 2.39943 19.7672 2.40763 19.6943 2.43632L2.27818 9.25203C2.10064 9.32094 1.95031 9.4457 1.84984 9.6075C1.74938 9.7693 1.70424 9.95936 1.72121 10.1491C1.73818 10.3387 1.81635 10.5178 1.94394 10.6592C2.07152 10.8006 2.24161 10.8967 2.42857 10.933L7.21873 11.8731V17.1875C7.2187 17.3931 7.28013 17.594 7.39513 17.7645C7.51013 17.9349 7.67345 18.0671 7.86412 18.144C7.98681 18.1932 8.11777 18.2186 8.24998 18.2187C8.38835 18.2184 8.52525 18.1903 8.65252 18.1359C8.77979 18.0816 8.89481 18.0022 8.99076 17.9025L11.397 15.4103L15.0923 18.651C15.2797 18.8162 15.5206 18.9078 15.7704 18.9088C15.8795 18.9084 15.9878 18.8913 16.0918 18.8581C16.2619 18.8043 16.4149 18.7067 16.5356 18.5752C16.6562 18.4437 16.7402 18.2829 16.7793 18.1087L20.2701 2.93218C20.2875 2.85612 20.284 2.77674 20.2597 2.70255C20.2355 2.62836 20.1916 2.56218 20.1326 2.51109ZM2.40623 10.0873C2.40118 10.0458 2.41055 10.0037 2.43276 9.96823C2.45496 9.93273 2.48867 9.90592 2.52826 9.89226L17.5372 4.01843L7.48255 11.2243L2.56177 10.2584C2.52006 10.2522 2.48176 10.2319 2.4534 10.2007C2.42504 10.1695 2.40837 10.1294 2.40623 10.0873ZM8.49662 17.4247C8.44909 17.4736 8.38807 17.5073 8.32133 17.5215C8.25458 17.5357 8.18513 17.5297 8.12182 17.5042C8.05851 17.4788 8.0042 17.4351 7.96581 17.3787C7.92741 17.3223 7.90667 17.2557 7.90623 17.1875V12.3492L10.8779 14.9531L8.49662 17.4247ZM16.109 17.9523C16.0957 18.0107 16.0674 18.0646 16.0269 18.1086C15.9863 18.1527 15.935 18.1854 15.878 18.2036C15.821 18.2217 15.7602 18.2246 15.7017 18.2121C15.6431 18.1995 15.5889 18.1719 15.5444 18.1319L8.11505 11.617L19.433 3.50625L16.109 17.9523Z" fill="white"/>
</g>
<defs>
<clipPath id="clip0_213_824">
<rect width="22" height="22" fill="white"/>
</clipPath>
</defs>
</svg>
