<svg width="22" height="22" viewBox="0 0 22 22" fill="none" xmlns="http://www.w3.org/2000/svg">
<path d="M12.0679 8.18124L13.8187 9.93207M7.975 4.08832L9.93208 6.0454M1.92958 10.1383C1.72098 10.3778 1.60608 10.6847 1.60608 11.0023C1.60608 11.3199 1.72098 11.6267 1.92958 11.8662L10.1383 20.075C10.3778 20.2836 10.6847 20.3985 11.0023 20.3985C11.3199 20.3985 11.6268 20.2836 11.8662 20.075L20.0704 11.8662C20.2808 11.6276 20.3969 11.3204 20.3969 11.0023C20.3969 10.6841 20.2808 10.3769 20.0704 10.1383L11.8662 1.92957C11.6302 1.71399 11.3195 1.5989 11 1.60874C10.6813 1.60037 10.372 1.71718 10.1383 1.93415L1.92958 10.1383Z" stroke="white" stroke-width="0.458333" stroke-linecap="round" stroke-linejoin="round"/>
<path d="M11 16.367C11.8353 16.367 12.5125 15.6899 12.5125 14.8545C12.5125 14.0192 11.8353 13.342 11 13.342C10.1647 13.342 9.48749 14.0192 9.48749 14.8545C9.48749 15.6899 10.1647 16.367 11 16.367Z" stroke="white" stroke-width="0.458333" stroke-linecap="round" stroke-linejoin="round"/>
<path d="M11 8.62583C11.8353 8.62583 12.5125 7.94866 12.5125 7.11333C12.5125 6.278 11.8353 5.60083 11 5.60083C10.1647 5.60083 9.48749 6.278 9.48749 7.11333C9.48749 7.94866 10.1647 8.62583 11 8.62583Z" stroke="white" stroke-width="0.458333" stroke-linecap="round" stroke-linejoin="round"/>
<path d="M14.8866 12.5125C15.722 12.5125 16.3991 11.8354 16.3991 11C16.3991 10.1647 15.722 9.48755 14.8866 9.48755C14.0513 9.48755 13.3741 10.1647 13.3741 11C13.3741 11.8354 14.0513 12.5125 14.8866 12.5125Z" stroke="white" stroke-width="0.458333" stroke-linecap="round" stroke-linejoin="round"/>
<path d="M11 13.3421V8.62585" stroke="white" stroke-width="0.458333" stroke-linecap="round" stroke-linejoin="round"/>
</svg>
