<svg width="33" height="33" viewBox="0 0 33 33" fill="none" xmlns="http://www.w3.org/2000/svg">
<g clip-path="url(#clip0_232_768)">
<mask id="mask0_232_768" style="mask-type:luminance" maskUnits="userSpaceOnUse" x="0" y="0" width="33" height="33">
<path d="M0 0H33V33H0V0Z" fill="white"/>
</mask>
<g mask="url(#mask0_232_768)">
<path d="M33 16.0724C33 13.8861 30.2624 11.814 26.0645 10.5297C27.0339 6.25212 26.6035 2.84762 24.706 1.75725C24.2462 1.49974 23.7258 1.37012 23.199 1.38187V2.88063C23.5084 2.88063 23.7573 2.9425 23.9663 3.05663C24.8806 3.58188 25.278 5.57838 24.9686 8.14825C24.8944 8.78075 24.7734 9.44625 24.6249 10.1255C23.2191 9.78675 21.7924 9.54192 20.3541 9.39262C19.4973 8.21052 18.5625 7.08694 17.556 6.02938C19.7491 3.99163 21.8075 2.87513 23.2073 2.87513V1.375C21.3565 1.375 18.9351 2.69362 16.4862 4.98025C14.0387 2.70875 11.616 1.4025 9.76663 1.4025V2.90125C11.1595 2.90125 13.2248 4.01225 15.4179 6.03625C14.476 7.02625 13.5341 8.14825 12.639 9.39262C11.1978 9.54026 9.76848 9.78744 8.36137 10.1324C8.21266 9.48859 8.09565 8.83789 8.01075 8.18263C7.6945 5.61138 8.085 3.61488 8.99387 3.08413C9.19462 2.96313 9.45725 2.90813 9.76663 2.90813V1.40937C9.20288 1.40937 8.69 1.53037 8.24725 1.78475C6.35663 2.87512 5.93313 6.27138 6.908 10.5366C2.72388 11.8291 0 13.893 0 16.0724C0 18.2586 2.73763 20.3307 6.9355 21.6136C5.96613 25.8926 6.3965 29.2971 8.294 30.3861C8.73125 30.6419 9.24275 30.7629 9.8065 30.7629C11.6572 30.7629 14.0786 29.4442 16.5275 27.1576C18.975 29.4305 21.3964 30.7354 23.2471 30.7354C23.778 30.7466 24.3024 30.6166 24.7665 30.3586C26.6571 29.2696 27.0806 25.8734 26.1058 21.6081C30.2761 20.3239 33 18.2518 33 16.0724ZM24.2412 11.5857C23.98 12.4848 23.6772 13.3713 23.3337 14.2422C22.7716 13.1488 22.1543 12.0845 21.4844 11.0536C22.44 11.1952 23.3613 11.3699 24.2426 11.5857H24.2412ZM21.1613 18.7495C20.6576 19.6288 20.1168 20.4862 19.5401 21.3194C17.522 21.4973 15.4922 21.4996 13.4736 21.3263C12.3158 19.6724 11.3032 17.9214 10.4473 16.093C11.3019 14.2603 12.3102 12.5032 13.4612 10.8405C15.4789 10.6623 17.5082 10.6595 19.5264 10.8322C20.0846 11.6325 20.6305 12.4877 21.1544 13.3897C21.6659 14.2697 22.1306 15.1635 22.5541 16.0655C22.1259 16.9784 21.6613 17.8738 21.1613 18.7495ZM23.3337 17.875C23.6967 18.7756 24.0075 19.6776 24.2619 20.5521C23.3819 20.768 22.4524 20.9495 21.4913 21.0898C22.1585 20.0495 22.7734 18.9765 23.3337 17.875ZM16.5138 25.0525C15.8881 24.4062 15.2625 23.6871 14.6437 22.8992C15.2487 22.9267 15.8675 22.9474 16.4931 22.9474C17.1256 22.9474 17.7512 22.9336 18.3631 22.8992C17.7581 23.6871 17.1325 24.4062 16.5138 25.0525ZM11.5087 21.0898C10.5816 20.9554 9.66125 20.7783 8.7505 20.559C8.99937 19.6914 9.30875 18.7963 9.658 17.9025C9.93438 18.4388 10.2245 18.9778 10.5407 19.5168C10.857 20.0544 11.1787 20.5796 11.5087 21.0898ZM16.4794 7.09225C17.105 7.7385 17.7306 8.45762 18.3494 9.2455C17.7444 9.218 17.1256 9.19738 16.5 9.19738C15.8675 9.19738 15.2419 9.21112 14.63 9.2455C15.235 8.45762 15.8606 7.7385 16.4794 7.09225ZM11.5019 11.055C10.8348 12.093 10.2199 13.1637 9.65938 14.2629C9.30629 13.3863 8.99654 12.4928 8.73125 11.5857C9.61125 11.3767 10.5407 11.1952 11.5019 11.055ZM5.41475 19.4755C3.03325 18.4607 1.49325 17.1284 1.49325 16.0724C1.49325 15.0164 3.03325 13.6771 5.41475 12.6692C5.99225 12.4204 6.62475 12.1976 7.27788 11.99C7.6615 13.3073 8.16613 14.6795 8.79038 16.0861C8.201 17.4091 7.70255 18.7708 7.2985 20.1616C6.65975 19.9638 6.03107 19.7349 5.41475 19.4755ZM9.03375 29.0867C8.11938 28.5642 7.722 26.565 8.03138 23.9965C8.10563 23.364 8.22663 22.6971 8.37513 22.0179C9.69238 22.341 11.132 22.5899 12.6459 22.7521C13.5027 23.9342 14.4375 25.0578 15.444 26.1154C13.2509 28.1531 11.1925 29.2696 9.79275 29.2696C9.52867 29.2725 9.26796 29.2102 9.03375 29.0881V29.0867ZM24.9892 23.9621C25.3055 26.532 24.915 28.5299 24.0061 29.0606C23.8054 29.1816 23.5427 29.2352 23.2334 29.2352C21.8405 29.2352 19.7752 28.1256 17.5821 26.1003C18.5844 25.0471 19.5129 23.9261 20.361 22.7452C21.8022 22.5976 23.2315 22.3504 24.6386 22.0055C24.794 22.6847 24.9136 23.3365 24.9892 23.9621ZM27.5784 19.4755C27.0009 19.7244 26.3684 19.9471 25.7152 20.1547C25.3041 18.7568 24.7988 17.3883 24.2027 16.0586C24.8215 14.6602 25.3179 13.2949 25.6946 11.9831C26.3354 12.1816 26.9663 12.4105 27.5853 12.6692C29.9668 13.684 31.5067 15.0164 31.5067 16.0724C31.4999 17.1284 29.9599 18.4676 27.5784 19.4755Z" fill="#D6BD96"/>
<path d="M16.4931 19.1469C17.3085 19.1469 18.0906 18.823 18.6671 18.2464C19.2437 17.6698 19.5676 16.8878 19.5676 16.0724C19.5676 15.257 19.2437 14.475 18.6671 13.8984C18.0906 13.3218 17.3085 12.9979 16.4931 12.9979C15.6777 12.9979 14.8957 13.3218 14.3191 13.8984C13.7426 14.475 13.4186 15.257 13.4186 16.0724C13.4186 16.8878 13.7426 17.6698 14.3191 18.2464C14.8957 18.823 15.6777 19.1469 16.4931 19.1469Z" fill="#D6BD96"/>
</g>
</g>
<defs>
<clipPath id="clip0_232_768">
<rect width="33" height="33" fill="white"/>
</clipPath>
</defs>
</svg>
