<svg width="28" height="28" viewBox="0 0 28 28" fill="none" xmlns="http://www.w3.org/2000/svg">
<path fill-rule="evenodd" clip-rule="evenodd" d="M14 0C6.26635 0 0 6.26635 0 14C0 21.7337 6.26635 28 14 28C21.7337 28 28 21.7337 28 14C28 6.26635 21.7337 0 14 0V0ZM14 26.8356C6.92596 26.8356 1.16442 21.0808 1.16442 14C1.16442 6.91923 6.92596 1.16442 14 1.16442C21.074 1.16442 26.8356 6.92596 26.8356 14C26.8356 21.074 21.074 26.8356 14 26.8356V26.8356Z" fill="url(#paint0_linear_0_425)"/>
<path fill-rule="evenodd" clip-rule="evenodd" d="M14.5452 5.38464H13.4144V13.4548H5.38461V14.5856H13.4144V22.6154H14.5452V14.5856H22.6154V13.4548H14.5452V5.38464Z" fill="url(#paint1_linear_0_425)"/>
<defs>
<linearGradient id="paint0_linear_0_425" x1="14" y1="0" x2="14" y2="28" gradientUnits="userSpaceOnUse">
<stop stop-color="#9C27B0"/>
<stop offset="1" stop-color="#651FFF"/>
</linearGradient>
<linearGradient id="paint1_linear_0_425" x1="14" y1="5.38464" x2="14" y2="22.6154" gradientUnits="userSpaceOnUse">
<stop stop-color="#9C27B0"/>
<stop offset="1" stop-color="#651FFF"/>
</linearGradient>
</defs>
</svg>
